Coordinates
version=1
nRows=6
nColumns=107
inDegrees=yes

Units are S.I. units (second, meters, Newtons, ...)
If the header above contains a line with 'inDegrees', this indicates whether rotational values are in degrees (yes) or radians (no).

endheader
time	sternoclavicular_r2	sternoclavicular_r3	unrotscap_r3	unrotscap_r2	acromioclavicular_r2	acromioclavicular_r3	acromioclavicular_r1	unrothum_r1	unrothum_r3	unrothum_r2	elv_angle	shoulder_elv	shoulder1_r2	shoulder_rot	elbow_flexion	pro_sup	deviation	flexion	proximal_distal_r1	proximal_distal_r3	cmc_flexion	cmc_abduction	mp_flexion	ip_flexion	mcp2_flexion	mcp2_abduction	pm2_flexion	md2_flexion	mcp3_flexion	mcp3_abduction	pm3_flexion	md3_flexion	mcp4_flexion	mcp4_abduction	pm4_flexion	md4_flexion	mcp5_flexion	mcp5_abduction	pm5_flexion	md5_flexion	bicpt_tx	bicpt_ty	bicpt_tz	bicpt2_tx	bicpt2_ty	bicpt2_tz	ptpt_tx	ptpt_ty	ptpt_tz	FCUpt_tx	FCUpt_ty	FCUpt_tz	EDCpt_tx	EDCpt_ty	EDCpt_tz	APLpt_tx	APLpt_ty	APLpt_tz	FPLpt_tx	FPLpt_ty	FPLpt_tz	FPLpt2_tx	FPLpt2_ty	FPLpt2_tz	PEC1pt2_tx	PEC1pt2_ty	PEC1pt2_tz	PEC1pt3_tx	PEC1pt3_ty	PEC1pt3_tz	PEC2pt2_tx	PEC2pt2_ty	PEC2pt2_tz	PEC2pt3_tx	PEC2pt3_ty	PEC2pt3_tz	PEC3pt2_tx	PEC3pt2_ty	PEC3pt2_tz	PEC3pt3_tx	PEC3pt3_ty	PEC3pt3_tz	DELT2pt2a_tx	DELT2pt2a_ty	DELT2pt2a_tz	DELT2pt2_tx	DELT2pt2_ty	DELT2pt2_tz	LAT1pt2_tx	LAT1pt2_ty	LAT1pt2_tz	LAT1pt3_tx	LAT1pt3_ty	LAT1pt3_tz	LAT2pt2_tx	LAT2pt2_ty	LAT2pt2_tz	LAT2pt3_tx	LAT2pt3_ty	LAT2pt3_tz	LAT3pt2_tx	LAT3pt2_ty	LAT3pt2_tz	LAT3pt3_tx	LAT3pt3_ty	LAT3pt3_tz
      0.00000000	     -0.31209147	      0.13218722	     -0.13218722	      0.31209147	     -0.06319218	      0.51069693	      0.22955476	     -0.22955476	     -0.51069693	      0.06319218	    101.32067279	     73.89043081	     -1.76837934	    -33.45616786	     28.81717164	      9.39926741	     -0.08939419	     -1.00599105	     -0.12786144	     -0.50299553	    -13.21082612	      8.48832934	    -31.02282902	      5.17083063	     46.65986349	     13.83314852	      7.04479688	    -35.69487358	     65.77716102	      8.13298332	     85.70266226	     65.60207354	     53.21250422	     -2.89521893	     94.86462378	     56.31958252	      0.63018294	    -13.73962825	    -18.41792216	      4.92293567	      0.00085318	     -0.03090289	     -0.00483201	      0.01544611	     -0.01802833	     -0.01008024	      0.00685550	     -0.06534908	     -0.00080716	      0.00484390	     -0.18399869	      0.00018341	     -0.00112791	      0.00027995	      0.00011235	      0.00018176	      0.00007270	      0.00036351	      0.00023265	      0.00069794	      0.00039259	     -0.00241470	      0.00042723	      0.00051268	      0.00242197	      0.00849741	      0.00591124	     -0.00792270	      0.01912943	     -0.01814422	      0.00242197	      0.00849741	      0.00591124	      0.00053365	      0.01773372	     -0.00931841	      0.00386081	      0.00472530	      0.01575072	      0.00000000	      0.00729878	      0.00000000	     -0.00693750	     -0.03206026	     -0.00601534	      0.02033025	     -0.00087669	     -0.00925181	     -0.00086206	      0.01444970	     -0.00591124	      0.00238092	      0.02085354	     -0.01724112	     -0.00578809	      0.01252033	     -0.00529549	     -0.01206878	      0.02643638	     -0.02959725	     -0.02265975	      0.01399814	     -0.00710170	     -0.01502440	      0.03054140	     -0.03698630
      0.03333333	     -0.31150951	      0.13194073	     -0.13194073	      0.31150951	     -0.06307434	      0.50974462	      0.22912670	     -0.22912670	     -0.50974462	      0.06307434	    101.44146010	     73.75264545	     -1.77048748	    -34.30648794	     28.99745230	     10.70114914	     -0.08974945	     -1.00844770	     -0.12839542	     -0.50422385	    -13.17347313	      8.71656636	    -30.34033191	      4.78921439	     46.63197828	     13.89297868	      6.83972319	    -36.47022425	     65.92200689	      8.42228940	     85.74448870	     65.14252090	     53.95753793	     -3.79260705	     93.90061699	     54.30688344	      0.99133546	    -13.75980553	    -18.25844694	      4.90639532	      0.00085915	     -0.03092355	     -0.00483534	      0.01553774	     -0.01807730	     -0.00999593	      0.00675931	     -0.06541128	     -0.00091203	      0.00496294	     -0.18398268	      0.00014480	     -0.00128413	      0.00032087	      0.00012413	      0.00018012	      0.00007205	      0.00036025	      0.00023056	      0.00069168	      0.00038907	     -0.00239979	      0.00042575	      0.00051090	      0.00241745	      0.00848156	      0.00590022	     -0.00790793	      0.01909376	     -0.01811039	      0.00241745	      0.00848156	      0.00590022	      0.00053266	      0.01770065	     -0.00930104	      0.00385548	      0.00471649	      0.01573719	      0.00000000	      0.00727142	      0.00000000	     -0.00692456	     -0.03200048	     -0.00599261	      0.02066305	     -0.00090659	     -0.00970364	     -0.00086045	      0.01442275	     -0.00590022	      0.00237648	      0.02081465	     -0.01720897	     -0.00577730	      0.01249699	     -0.00528561	     -0.01204628	      0.02638708	     -0.02954206	     -0.02261750	      0.01397204	     -0.00708845	     -0.01499638	      0.03048445	     -0.03691733
      0.06666667	     -0.31060650	      0.13155825	     -0.13155825	      0.31060650	     -0.06289150	      0.50826696	      0.22846250	     -0.22846250	     -0.50826696	      0.06289150	    101.72387045	     73.53884919	     -1.77541647	    -35.70079726	     29.13830895	     12.31554480	     -0.09204908	     -1.01034811	     -0.13185803	     -0.50517406	    -13.09336495	      8.99115355	    -30.14353441	      4.59681542	     46.74890113	     13.93647968	      6.81941247	    -37.17682137	     66.20346580	      8.50033623	     85.71349352	     64.71767787	     54.45910366	     -4.58151793	     93.45998148	     52.61636576	      1.28837504	    -13.77131523	    -18.13360221	      4.89223738	      0.00086380	     -0.03093970	     -0.00483794	      0.01564599	     -0.01811556	     -0.00988809	      0.00664002	     -0.06548841	     -0.00104208	      0.00511128	     -0.18396215	      0.00009870	     -0.00147786	      0.00037235	      0.00013747	      0.00017886	      0.00007154	      0.00035771	      0.00022894	      0.00068681	      0.00038633	     -0.00236804	      0.00042258	      0.00050709	      0.00241044	      0.00845697	      0.00588311	     -0.00788501	      0.01903841	     -0.01805789	      0.00241044	      0.00845697	      0.00588311	      0.00053111	      0.01764934	     -0.00927407	      0.00384719	      0.00470282	      0.01571610	      0.00000000	      0.00722906	      0.00000000	     -0.00690449	     -0.03190772	     -0.00595742	      0.02118783	     -0.00095598	     -0.01046099	     -0.00085795	      0.01438094	     -0.00588311	      0.00236959	      0.02075431	     -0.01715908	     -0.00576055	      0.01246076	     -0.00527029	     -0.01201136	      0.02631059	     -0.02945642	     -0.02255193	      0.01393154	     -0.00706791	     -0.01495291	      0.03039608	     -0.03681031
      0.10000000	     -0.31073857	      0.13161419	     -0.13161419	      0.31073857	     -0.06291824	      0.50848309	      0.22855965	     -0.22855965	     -0.50848309	      0.06291824	    101.72245128	     73.57011930	     -1.77539170	    -35.70587957	     29.15243787	     12.31584781	     -0.09204370	     -1.01038042	     -0.13185068	     -0.50519021	    -13.09314530	      8.99114742	    -30.14334839	      4.59687556	     46.74718641	     13.93697131	      6.81926158	    -37.17691413	     66.20405019	      8.50055482	     85.71366828	     64.71751507	     54.45949574	     -4.58212222	     93.46003084	     52.61623963	      1.28691106	    -13.77087448	    -18.13412230	      4.89221370	      0.00086427	     -0.03094131	     -0.00483820	      0.01564601	     -0.01811940	     -0.00988806	      0.00664000	     -0.06548842	     -0.00104211	      0.00511130	     -0.18396215	      0.00009869	     -0.00147790	      0.00037236	      0.00013748	      0.00017883	      0.00007153	      0.00035766	      0.00022891	      0.00068672	      0.00038628	     -0.00236796	      0.00042257	      0.00050708	      0.00241147	      0.00846057	      0.00588561	     -0.00788836	      0.01904650	     -0.01806557	      0.00241147	      0.00846057	      0.00588561	      0.00053134	      0.01765684	     -0.00927802	      0.00384840	      0.00470482	      0.01571919	      0.00000000	      0.00723525	      0.00000000	     -0.00690742	     -0.03192128	     -0.00596256	      0.02118969	     -0.00095616	     -0.01046379	     -0.00085832	      0.01438706	     -0.00588561	      0.00237059	      0.02076314	     -0.01716638	     -0.00576300	      0.01246606	     -0.00527253	     -0.01201646	      0.02632178	     -0.02946894	     -0.02256152	      0.01393746	     -0.00707091	     -0.01495927	      0.03040901	     -0.03682596
      0.13333333	     -0.31213889	      0.13220730	     -0.13220730	      0.31213889	     -0.06320177	      0.51077451	      0.22958963	     -0.22958963	     -0.51077451	      0.06320177	    101.08049517	     73.90165563	     -1.76418745	    -33.24336676	     29.21304820	     10.48183956	     -0.09425779	     -1.04460404	     -0.13519308	     -0.52230202	    -13.04263152	      9.01954378	    -29.50409727	      4.53243276	     46.02638399	     13.97731655	      6.86884149	    -35.67840206	     66.15366571	      8.80083627	     85.89914784	     63.42947392	     54.86909227	     -5.27113394	     92.89452404	     51.30235001	      2.20220637	    -13.80371336	    -19.08429537	      4.90756725	      0.00086628	     -0.03094826	     -0.00483932	      0.01552258	     -0.01813587	     -0.01001030	      0.00677551	     -0.06540080	     -0.00089437	      0.00494285	     -0.18398541	      0.00015121	     -0.00125782	      0.00031394	      0.00012221	      0.00015495	      0.00006198	      0.00030990	      0.00019834	      0.00059501	      0.00033469	     -0.00234806	      0.00042057	      0.00050469	      0.00242233	      0.00849870	      0.00591214	     -0.00792391	      0.01913233	     -0.01814698	      0.00242233	      0.00849870	      0.00591214	      0.00053373	      0.01773641	     -0.00931983	      0.00386124	      0.00472602	      0.01575182	      0.00000000	      0.00730101	      0.00000000	     -0.00693855	     -0.03206513	     -0.00601720	      0.02024547	     -0.00086924	     -0.00913994	     -0.00086219	      0.01445189	     -0.00591214	      0.00238128	      0.02085671	     -0.01724373	     -0.00578897	      0.01252224	     -0.00529629	     -0.01207061	      0.02644039	     -0.02960174	     -0.02266319	      0.01400027	     -0.00710278	     -0.01502668	      0.03054604	     -0.03699192
      0.16666667	     -0.31293167	      0.13254309	     -0.13254309	      0.31293167	     -0.06336230	      0.51207180	      0.23017275	     -0.23017275	     -0.51207180	      0.06336230	    100.79566115	     74.08935413	     -1.75921616	    -32.03511722	     29.23846561	      9.61919197	     -0.09170951	     -1.05714746	     -0.13134684	     -0.52857373	    -13.03367100	      8.98809008	    -29.33125750	      4.60878744	     46.07198969	     13.99282823	      7.01586415	    -36.83033311	     66.19389843	      8.88050257	     85.87348702	     63.21201213	     54.85351234	     -5.41812043	     93.04409032	     50.90886663	      2.44587898	    -13.81117809	    -18.70024407	      4.88784060	      0.00086712	     -0.03095118	     -0.00483979	      0.01546193	     -0.01814277	     -0.01006621	      0.00683925	     -0.06535958	     -0.00082488	      0.00486396	     -0.18399602	      0.00017677	     -0.00115430	      0.00028681	      0.00011442	      0.00014571	      0.00005828	      0.00029141	      0.00018650	      0.00055951	      0.00031473	     -0.00234456	      0.00042022	      0.00050426	      0.00242849	      0.00852028	      0.00592715	     -0.00794403	      0.01918093	     -0.01819307	      0.00242849	      0.00852028	      0.00592715	      0.00053509	      0.01778146	     -0.00934350	      0.00386850	      0.00473802	      0.01577018	      0.00000000	      0.00733838	      0.00000000	     -0.00695617	     -0.03214657	     -0.00604824	      0.01975264	     -0.00082713	     -0.00851429	     -0.00086438	      0.01448860	     -0.00592715	      0.00238733	      0.02090968	     -0.01728753	     -0.00580367	      0.01255404	     -0.00530974	     -0.01210127	      0.02650755	     -0.02967693	     -0.02272075	      0.01403583	     -0.00712082	     -0.01506485	      0.03062363	     -0.03708587
